<svg xmlns="http://www.w3.org/2000/svg" width="48" height="48" viewBox="0 0 48 48">
  <title>G Check star directional facet candidate</title>
  <desc>White, lilac and warm-gold facets with restrained static glow. Reference fidelity remains pending.</desc>
  <defs>
    <radialGradient id="halo"><stop stop-color="#f4dfff" stop-opacity=".3"/><stop offset=".65" stop-color="#dbc7ff" stop-opacity=".12"/><stop offset="1" stop-color="#ceb5ff" stop-opacity="0"/></radialGradient>
    <linearGradient id="rim" x1="0%" y1="0%" x2="100%" y2="100%"><stop stop-color="#f6eaff"/><stop offset=".48" stop-color="#e4c7dd"/><stop offset="1" stop-color="#e6ba83"/></linearGradient>
    <linearGradient id="upperLeft" x1="0%" y1="0%" x2="100%" y2="100%"><stop stop-color="#f0e7ff"/><stop offset=".55" stop-color="#fffbff"/><stop offset="1" stop-color="#ded2f6"/></linearGradient>
    <linearGradient id="upperRight" x1="0%" y1="0%" x2="100%" y2="100%"><stop stop-color="#fff9f7"/><stop offset=".6" stop-color="#f3e1d8"/><stop offset="1" stop-color="#d9b6bd"/></linearGradient>
    <linearGradient id="lowerLeft" x1="0%" y1="0%" x2="100%" y2="100%"><stop stop-color="#d6c0ef"/><stop offset=".5" stop-color="#e6cce8"/><stop offset="1" stop-color="#fff1f9"/></linearGradient>
    <linearGradient id="lowerRight" x1="0%" y1="0%" x2="100%" y2="100%"><stop stop-color="#f5cfad"/><stop offset=".5" stop-color="#f9d798"/><stop offset="1" stop-color="#fff0d8"/></linearGradient>
    <radialGradient id="glint"><stop stop-color="#fff3ff" stop-opacity=".65"/><stop offset=".35" stop-color="#f5ddff" stop-opacity=".35"/><stop offset="1" stop-color="#e4c2ff" stop-opacity="0"/></radialGradient>
  </defs>
  <ellipse cx="23" cy="26" rx="22" ry="22" fill="url(#halo)"/>
  <path d="M23 4 C25 16 30 23 43 26 C30 29 25 35 23 47 C20 35 14 29 3 26 C14 23 20 16 23 4 Z" fill="url(#rim)"/>
  <path d="M23 6 L23 26 L5 26 C14 23 20 16 23 6 Z" fill="url(#upperLeft)"/>
  <path d="M23 6 C25 16 30 23 42 26 L23 26 Z" fill="url(#upperRight)"/>
  <path d="M5 26 L23 26 L23 45 C20 35 14 29 5 26 Z" fill="url(#lowerLeft)"/>
  <path d="M23 26 L42 26 C30 29 25 35 23 46 Z" fill="url(#lowerRight)"/>
  <path d="M23 19 L29 26 L23 33 L16 26 Z" fill="#9b79d2" opacity=".85"/>
  <path d="M23 19 L23 26 L16 26 Z" fill="#c7acec"/>
  <path d="M16 26 L23 26 L23 33 Z" fill="#b999dd"/>
  <path d="M23 7 C25 17 30 23 41 26" fill="none" stroke="#fffaff" stroke-width="1" opacity=".95"/>
  <path d="M6 26 C15 30 20 36 23 44" fill="none" stroke="#fff4fd" stroke-width=".65" opacity=".7"/>
  <ellipse cx="9" cy="14.5" rx="2.2" ry="2.2" fill="url(#glint)"/>
  <ellipse cx="37" cy="14.5" rx="2.2" ry="2.2" fill="url(#glint)"/>
  <ellipse cx="10" cy="40" rx="2" ry="2" fill="url(#glint)"/>
  <ellipse cx="37" cy="40" rx="2" ry="2" fill="url(#glint)"/>
</svg>
