<svg xmlns="http://www.w3.org/2000/svg" width="314" height="29" viewBox="0 0 314 29">
  <title>G long gold divider bevel candidate</title>
  <desc>Preserved v001 geometry with layered gold shading and ivory star facets. Faithful-art acceptance pending.</desc>
  <defs>
    <linearGradient id="lineGold" x1="0%" y1="0%" x2="0%" y2="100%">
      <stop offset="0" stop-color="#ecd9ba"/><stop offset=".45" stop-color="#c39a75"/>
      <stop offset=".6" stop-color="#aa7e62"/><stop offset="1" stop-color="#ead5b7"/>
    </linearGradient>
    <linearGradient id="bevelGold" x1="0%" y1="0%" x2="100%" y2="100%">
      <stop offset="0" stop-color="#f5e5cb"/><stop offset=".3" stop-color="#ae805e"/>
      <stop offset=".55" stop-color="#dcb583"/><stop offset=".8" stop-color="#f5e1ba"/>
      <stop offset="1" stop-color="#9d6a55"/>
    </linearGradient>
    <linearGradient id="lowerFacet" x1="0%" y1="0%" x2="100%" y2="100%">
      <stop offset="0" stop-color="#d7b68a"/><stop offset="1" stop-color="#aa785e"/>
    </linearGradient>
  </defs>
  <path d="M0 14.5 132 13.3 132 15.7Z M182 13.3 314 14.5 182 15.7Z" fill="url(#lineGold)"/>
  <path d="m132 14.5 3-2.5 3 2.5-3 2.5Z m44 0 3-2.5 3 2.5-3 2.5Z" fill="url(#bevelGold)"/>
  <path d="M157 1.5c1.8 7.4 4.2 10.6 11 13-6.8 2.4-9.2 5.6-11 13-1.8-7.4-4.2-10.6-11-13 6.8-2.4 9.2-5.6 11-13Z" fill="url(#bevelGold)" stroke="#bc997b" stroke-width=".4" stroke-linejoin="round"/>
  <path d="M157 4.5c1.5 5.4 3.5 8 8 10-4.5 2-6.5 4.6-8 10-1.5-5.4-3.5-8-8-10 4.5-2 6.5-4.6 8-10Z" fill="#e9d3af"/>
  <path d="m157 4.5 0 10-8 0c4.5-2 6.5-4.6 8-10Z" fill="#fff5e3"/>
  <path d="m157 14.5 8 0c-4.5 2-6.5 4.6-8 10Z" fill="url(#lowerFacet)"/>
</svg>
